<?xml version="1.0" standalone="no"?>
<!DOCTYPE svg PUBLIC "-//W3C//DTD SVG 20010904//EN"
 "http://www.w3.org/TR/2001/REC-SVG-20010904/DTD/svg10.dtd">
<svg version="1.0" xmlns="http://www.w3.org/2000/svg"
 width="64.000000pt" height="64.000000pt" viewBox="0 0 64.000000 64.000000"
 preserveAspectRatio="xMidYMid meet">
<metadata>
Created by potrace 1.16, written by Peter Selinger 2001-2019
</metadata>
<g transform="translate(0.000000,64.000000) scale(0.100000,-0.100000)"
fill="#000000" stroke="none">
<path d="M192 619 c-72 -28 -144 -101 -172 -176 -18 -48 -21 -73 -18 -143 5
-100 27 -150 94 -216 38 -37 130 -84 164 -84 6 0 10 46 10 109 l0 110 -42 3
-43 3 -3 48 -3 47 44 0 45 0 4 71 c3 63 7 74 31 95 32 27 83 39 132 30 33 -7
35 -9 35 -46 0 -38 -2 -40 -30 -40 -41 0 -70 -31 -70 -75 0 -35 0 -35 46 -35
l47 0 -7 -38 c-3 -20 -6 -43 -6 -49 0 -8 -15 -13 -40 -13 l-40 0 0 -110 c0
-64 4 -110 10 -110 34 0 126 47 164 84 67 66 89 116 94 216 5 112 -19 180 -88
250 -89 88 -235 116 -358 69z"/>
</g>
</svg>
